<?xml version="1.0" encoding="utf-8"?>
<!-- Generator: Adobe Illustrator 23.0.1, SVG Export Plug-In . SVG Version: 6.00 Build 0)  -->
<svg version="1.1" id="圖層_1" xmlns="http://www.w3.org/2000/svg" xmlns:xlink="http://www.w3.org/1999/xlink" x="0px" y="0px"
	 viewBox="0 0 31.3 23.9" style="enable-background:new 0 0 31.3 23.9;" xml:space="preserve">
<style type="text/css">
	.st0{fill:none;stroke:#000000;stroke-miterlimit:10;}
</style>
<title>資產 3</title>
<g>
	<g id="網頁">
		<g id="內容">
			<path class="st0" d="M30.6,15.1c0,3.8-3.1,6.9-6.9,6.9c-1.4,0-2.7-0.4-3.9-1.2c-2.5,2.9-6.8,3.3-9.7,0.8l0,0
				c-3.5,1.4-7.6-0.3-9-3.9s0.3-7.6,3.9-9C4.9,8.3,4.9,7.9,4.9,7.5c0-3.8,3.1-6.9,6.9-6.9c1.9,0,3.7,0.8,5,2.2
				c1-0.6,2.2-0.9,3.4-0.9c3.8,0,6.9,3.1,6.9,6.9l0,0c0,0.1,0,0.2,0,0.3C29.3,10.3,30.6,12.6,30.6,15.1z"/>
		</g>
	</g>
</g>
</svg>
