<?xml version="1.0" encoding="utf-8"?>
<!-- Generator: Adobe Illustrator 23.0.1, SVG Export Plug-In . SVG Version: 6.00 Build 0)  -->
<svg version="1.1" id="圖層_1" xmlns="http://www.w3.org/2000/svg" xmlns:xlink="http://www.w3.org/1999/xlink" x="0px" y="0px"
	 viewBox="0 0 31.4 28.7" style="enable-background:new 0 0 31.4 28.7;" xml:space="preserve">
<style type="text/css">
	.st0{fill:none;stroke:#000000;stroke-miterlimit:10;}
</style>
<title>資產 5</title>
<g>
	<g id="網頁">
		<g id="內容">
			<path class="st0" d="M30.6,15.2c0,3.8-3.2,7-7,7c-1.4,0-2.7-0.4-3.8-1.2c-2.5,3-6.9,3.3-9.9,0.8l0,0c-0.8,0.3-1.5,0.4-2.4,0.4
				c-3.8,0-6.9-3.2-6.9-7.1c0-2.7,1.6-5.1,4.2-6.2C4.7,8.5,4.7,8.1,4.7,7.7c0-3.8,3.2-7,7-7c1.9,0,3.7,0.8,5,2.2
				c1.1-0.7,2.3-1,3.5-1c3.8,0,6.9,3.1,7,6.9c0,0.1,0,0.2,0,0.3C29.3,10.4,30.6,12.7,30.6,15.2z"/>
			<line class="st0" x1="7.2" y1="22.5" x2="4.8" y2="26"/>
			<line class="st0" x1="14.9" y1="24.7" x2="12.5" y2="28.2"/>
			<line class="st0" x1="23.6" y1="22.5" x2="21.2" y2="26"/>
		</g>
	</g>
</g>
</svg>
